<?xml version="1.0" encoding="UTF-8" standalone="no"?>
<!DOCTYPE svg PUBLIC "-//W3C//DTD SVG 1.1//EN" "http://www.w3.org/Graphics/SVG/1.1/DTD/svg11.dtd">
<svg version="1.1" xmlns="http://www.w3.org/2000/svg" xmlns:xlink="http://www.w3.org/1999/xlink" preserveAspectRatio="xMidYMid meet" viewBox="1.7763568394002505e-13 -3.552713678800501e-15 37 36" width="33" height="32"><defs><path d="M26.14 21.39C26.29 22.12 27.04 25.75 28.38 32.27C22.43 29.38 19.11 27.77 18.45 27.45C18.17 27.31 17.83 27.33 17.56 27.49C16.92 27.85 13.73 29.69 7.99 33C8.88 26.39 9.37 22.72 9.47 21.99C9.51 21.67 9.39 21.36 9.16 21.14C8.62 20.64 5.9 18.15 1 13.67C7.51 12.48 11.12 11.82 11.85 11.69C12.16 11.63 12.42 11.42 12.55 11.13C12.85 10.46 14.36 7.08 17.08 1C20.21 6.87 21.95 10.13 22.3 10.78C22.45 11.06 22.73 11.25 23.04 11.29C23.77 11.37 27.43 11.77 34 12.5L26.38 20.53C26.18 20.9 26.1 21.19 26.14 21.39Z" id="aG7x2JpCG"></path></defs><g><g><use xlink:href="#aG7x2JpCG" opacity="1" fill="#ffffff" fill-opacity="1"></use><g><use xlink:href="#aG7x2JpCG" opacity="1" fill-opacity="0" stroke="#090000" stroke-width="2" stroke-opacity="1"></use></g></g></g></svg>