<?xml version="1.0" encoding="UTF-8" standalone="no"?>
<!DOCTYPE svg PUBLIC "-//W3C//DTD SVG 1.1//EN" "http://www.w3.org/Graphics/SVG/1.1/DTD/svg11.dtd">
<svg version="1.1" xmlns="http://www.w3.org/2000/svg" xmlns:xlink="http://www.w3.org/1999/xlink" preserveAspectRatio="xMidYMid meet" viewBox="1.7763568394002505e-13 -3.552713678800501e-15 34.93749999999982 34" width="30" height="29.09"><defs><path d="M24.57 20.12C24.71 20.8 25.41 24.2 26.67 30.32C21.09 27.61 17.98 26.1 17.36 25.8C17.09 25.67 16.78 25.68 16.52 25.83C15.93 26.17 12.93 27.9 7.55 31C8.38 24.81 8.85 21.37 8.94 20.68C8.98 20.38 8.87 20.08 8.65 19.88C8.14 19.42 5.59 17.08 1 12.88C7.1 11.76 10.49 11.14 11.17 11.02C11.46 10.97 11.71 10.77 11.83 10.5C12.11 9.86 13.53 6.7 16.07 1C19.01 6.5 20.64 9.56 20.97 10.17C21.11 10.43 21.37 10.61 21.66 10.64C22.35 10.72 25.77 11.1 31.94 11.78L24.8 19.31C24.6 19.65 24.53 19.92 24.57 20.12Z" id="cvYpB9him"></path></defs><g><g><use xlink:href="#cvYpB9him" opacity="1" fill="#ffffff" fill-opacity="1"></use><g><use xlink:href="#cvYpB9him" opacity="1" fill-opacity="0" stroke="#090000" stroke-width="2" stroke-opacity="1"></use></g></g></g></svg>